<svg xmlns="http://www.w3.org/2000/svg" xmlns:xlink="http://www.w3.org/1999/xlink">
  <symbol id="home" viewBox="-2 1 24 24">
    <path d="M13 20.565v-5a3 3 0 0 0-6 0v5H2a2 2 0 0 1-2-2V7.697a2 2 0 0 1 .971-1.715l8-4.8a2 2 0 0 1 2.058 0l8 4.8A2 2 0 0 1 20 7.697v10.868a2 2 0 0 1-2 2h-5z" />
  </symbol>
  <symbol id="cogs" viewBox="-2 -1 24 24">
    <path d="M14 5.714a1.474 1.474 0 0 0 0 2.572l-.502 1.684a1.473 1.473 0 0 0-1.553 2.14l-1.443 1.122A1.473 1.473 0 0 0 8.143 14l-2.304-.006a1.473 1.473 0 0 0-2.352-.765l-1.442-1.131A1.473 1.473 0 0 0 .5 9.968L0 8.278a1.474 1.474 0 0 0 0-2.555l.5-1.69a1.473 1.473 0 0 0 1.545-2.13L3.487.77A1.473 1.473 0 0 0 5.84.005L8.143 0a1.473 1.473 0 0 0 2.358.768l1.444 1.122a1.473 1.473 0 0 0 1.553 2.14L14 5.714zM7 10a3 3 0 1 0 0-6 3 3 0 0 0 0 6zm7.393.061a7.976 7.976 0 0 0 .545-4.058L16.144 6a1.473 1.473 0 0 0 2.358.768l1.444 1.122a1.473 1.473 0 0 0 1.553 2.14L22 11.714a1.474 1.474 0 0 0 0 2.572l-.502 1.684a1.473 1.473 0 0 0-1.553 2.14l-1.443 1.122a1.473 1.473 0 0 0-2.359.768l-2.304-.006a1.473 1.473 0 0 0-2.352-.765l-1.442-1.131a1.473 1.473 0 0 0-1.545-2.13l-.312-1.056a7.964 7.964 0 0 0 3.821-1.674 3 3 0 1 0 2.384-3.177z" />
  </symbol>
  <symbol id="menu" viewBox="-5 -6 24 24">
    <path d="M1 0h5a1 1 0 1 1 0 2H1a1 1 0 1 1 0-2zm7 8h5a1 1 0 0 1 0 2H8a1 1 0 1 1 0-2zM1 4h12a1 1 0 0 1 0 2H1a1 1 0 1 1 0-2z" />
  </symbol>
  <symbol id="envelope" viewBox="-2 -5 24 24">
    <path d="M18.572.083L10.676 7.12a1 1 0 0 1-1.331 0L1.416.087A2 2 0 0 1 2 0h16a2 2 0 0 1 .572.083zm1.356 1.385c.047.17.072.348.072.532v10a2 2 0 0 1-2 2H2a2 2 0 0 1-2-2V2c0-.185.025-.364.072-.534l7.942 7.148a3 3 0 0 0 3.992 0l7.922-7.146z" />
  </symbol>
  <symbol id="message" viewBox="-2 -2 24 24">
    <path d="M3 .565h14a3 3 0 0 1 3 3v8a3 3 0 0 1-3 3h-6.958l-6.444 4.808A1 1 0 0 1 2   18.57v-4.006a2 2 0 0 1-2-2v-9a3 3 0 0 1 3-3z" />
  </symbol>
  <symbol id="bell" viewBox="-3 -2 24 24">
    <path d="M18 17H0a8.978 8.978 0 0 1 3-6.708V6a6 6 0 1 1 12 0v4.292A8.978 8.978 0 0 1 18 17zM6.17 18h5.66a3.001 3.001 0 0 1-5.66 0z" />
  </symbol>
  <symbol id="pencil" viewBox="-2.5 -2.5 24 24">
    <path d="M16.318 6.11l-3.536-3.535 1.415-1.414c.63-.63 2.073-.755 2.828 0l.707.707c.755.755.631 2.198 0 2.829L16.318 6.11zm-1.414 1.415l-9.9 9.9-4.596 1.06 1.06-4.596 9.9-9.9 3.536 3.536z" />
  </symbol>
  <symbol id="align-justify" viewBox="-5 -7 24 24">
    <path d="M1 0h12a1 1 0 0 1 0 2H1a1 1 0 1 1 0-2zm0 8h12a1 1 0 0 1 0 2H1a1 1 0 1 1 0-2zm0-4h12a1 1 0 0 1 0 2H1a1 1 0 1 1 0-2z" />
  </symbol>
  <symbol id="search" viewBox="-2.5 -2.5 24 24">
    <path d="M8 14A6 6 0 1 0 8 2a6 6 0 0 0 0 12zm6.32-1.094l3.58 3.58a1 1 0 1 1-1.415 1.413l-3.58-3.58a8 8 0 1 1 1.414-1.414z" />
  </symbol>
  <symbol id="user-in-circle" viewBox="-2 -2 24 24">
    <path d="M10 20C4.477 20 0 15.523 0 10S4.477 0 10 0s10 4.477 10 10-4.477 10-10 10zm0-2a8 8 0 1 0 0-16 8 8 0 0 0 0 16zm0-14a4 4 0 0 1 4 4v2a4 4 0 1 1-8 0V8a4 4 0 0 1 4-4zm0 2a2 2 0 0 0-2 2v2a2 2 0 1 0 4 0V8a2 2 0 0 0-2-2zM5.91 16.876a8.033 8.033 0 0 1-1.58-1.232 5.57 5.57 0 0 1 2.204-1.574 1 1 0 1 1 .733 1.86c-.532.21-.993.538-1.358.946zm8.144.022a3.652 3.652 0 0 0-1.41-.964 1 1 0 1 1 .712-1.868 5.65 5.65 0 0 1 2.284 1.607 8.032 8.032 0 0 1-1.586 1.225z" />
  </symbol>
  <symbol id="log-out" viewBox="-5 -3 24 24">
    <path d="M3.414 7.828h5.642a1 1 0 1 1 0 2H3.414l1.122 1.122a1 1 0 1 1-1.415 1.414L.293 9.536a.997.997 0 0 1 0-1.415L3.12 5.293a1 1 0 0 1 1.415 1.414L3.414 7.828zM13 0a1 1 0 0 1 1 1v16a1 1 0 0 1-2 0V1a1 1 0 0 1 1-1z" />
  </symbol>
  <symbol id="help" viewBox="-2 -2 24 24">
    <path d="M10 20C4.477 20 0 15.523 0 10S4.477 0 10 0s10 4.477 10 10-4.477 10-10 10zm0-2a8 8 0 1 0 0-16 8 8 0 0 0 0 16zm0-3a1 1 0 1 1 0-2 1 1 0 0 1 0 2zm1.276-3.218a1 1 0 0 1-1.232-1.576l.394-.308a1.5 1.5 0 1 0-1.847-2.364l-.394.308a1 1 0 1 1-1.23-1.576l.393-.308a3.5 3.5 0 1 1 4.31 5.516l-.394.308z" />
  </symbol>
  <!-- <symbol id="home" viewBox="0 0 24 24"></symbol> -->
</svg>